<svg width="139" height="36" viewBox="0 0 139 36" fill="none" xmlns="http://www.w3.org/2000/svg">
    <path d="M6.328 24.276C6.328 24.8733 6.37467 25.3213 6.468 25.62C6.56133 25.9187 6.72933 26.124 6.972 26.236C7.23333 26.348 7.616 26.404 8.12 26.404H11.144C11.816 26.404 12.3387 26.3387 12.712 26.208C13.0853 26.0587 13.3747 25.816 13.58 25.48C13.804 25.1253 14.0093 24.6027 14.196 23.912L14.364 23.268L15.316 23.604V28.392L14.756 28.7L14.532 28.392C14.3267 28.1307 13.9347 28 13.356 28H1.568L1.26 27.104L1.848 26.936C2.53867 26.7307 2.996 26.4693 3.22 26.152C3.444 25.8347 3.556 25.2747 3.556 24.472V13.524C3.556 12.404 3.46267 11.4987 3.276 10.808C3.08933 10.1173 2.76267 9.464 2.296 8.848L1.932 8.344L2.296 7.896H10.864C12.4693 7.896 13.5333 7.7 14.056 7.308L14.56 6.944L15.008 7.308V12.292L14.056 12.628L13.888 11.984C13.7013 11.2933 13.496 10.78 13.272 10.444C13.0667 10.0893 12.7773 9.84667 12.404 9.716C12.0307 9.56667 11.508 9.492 10.836 9.492H8.12C7.616 9.492 7.23333 9.548 6.972 9.66C6.72933 9.772 6.56133 9.97733 6.468 10.276C6.37467 10.5747 6.328 11.0227 6.328 11.62V16.996H9.884C10.332 16.996 10.724 16.9027 11.06 16.716C11.4147 16.5107 11.76 16.1747 12.096 15.708L12.32 15.4L12.88 15.708V20.496L11.928 20.832L11.76 20.188C11.592 19.5533 11.2933 19.1333 10.864 18.928C10.4533 18.704 9.73467 18.592 8.708 18.592H6.328V24.276ZM28.3178 25.424C27.5525 26.5067 26.7685 27.272 25.9658 27.72C25.1632 28.168 24.2952 28.392 23.3618 28.392C22.4658 28.392 21.6352 28.14 20.8698 27.636C20.1045 27.1133 19.4885 26.3387 19.0218 25.312C18.5738 24.2853 18.3498 23.044 18.3498 21.588C18.3498 19.9827 18.6392 18.592 19.2178 17.416C19.8152 16.2213 20.6552 15.3067 21.7378 14.672C22.8392 14.0373 24.1272 13.72 25.6018 13.72C26.3298 13.72 27.3565 13.8413 28.6818 14.084C29.8018 14.2707 30.6418 14.3827 31.2018 14.42L31.5098 14.784L31.1738 15.288C31.0432 15.4747 30.9498 15.652 30.8938 15.82C30.8378 15.9693 30.8098 16.156 30.8098 16.38V25.536C30.8098 26.1147 31.0898 26.404 31.6498 26.404C32.1165 26.404 32.5832 26.236 33.0498 25.9L33.5818 26.628C33.0965 27.1693 32.5738 27.5987 32.0138 27.916C31.4538 28.2333 30.9405 28.392 30.4738 28.392C29.7085 28.392 29.1578 28.1587 28.8218 27.692C28.4858 27.2253 28.3178 26.4693 28.3178 25.424ZM21.2898 21.056C21.2898 22.8293 21.5885 24.136 22.1858 24.976C22.8018 25.816 23.5672 26.236 24.4818 26.236C25.2285 26.236 25.9285 26.0307 26.5818 25.62C27.2352 25.1907 27.8138 24.5467 28.3178 23.688V16.128C27.4592 15.5493 26.5445 15.26 25.5738 15.26C24.2112 15.26 23.1565 15.7733 22.4098 16.8C21.6632 17.808 21.2898 19.2267 21.2898 21.056ZM42.2763 34.328C43.4336 34.328 44.2829 33.852 44.8243 32.9C45.3656 31.948 45.6363 30.6693 45.6363 29.064V24.612C44.8709 25.6947 44.0869 26.46 43.2843 26.908C42.4816 27.356 41.6136 27.58 40.6803 27.58C39.7843 27.58 38.9536 27.356 38.1883 26.908C37.4229 26.4413 36.8069 25.76 36.3403 24.864C35.8923 23.968 35.6683 22.876 35.6683 21.588C35.6683 19.9827 35.9576 18.592 36.5363 17.416C37.1336 16.2213 37.9736 15.3067 39.0563 14.672C40.1576 14.0373 41.4456 13.72 42.9203 13.72C43.6483 13.72 44.6749 13.8413 46.0003 14.084C47.1203 14.2707 47.9603 14.3827 48.5203 14.42L48.8283 14.784L48.4923 15.288C48.3616 15.4747 48.2683 15.652 48.2123 15.82C48.1563 15.9693 48.1283 16.156 48.1283 16.38V28.616C48.1283 30.912 47.5683 32.676 46.4483 33.908C45.3469 35.1587 43.8349 35.784 41.9123 35.784C40.8856 35.784 40.0083 35.588 39.2803 35.196C38.5523 34.8227 38.0109 34.328 37.6563 33.712C37.3016 33.1147 37.1243 32.4707 37.1243 31.78C37.1243 30.8467 37.4416 30.044 38.0763 29.372C38.7109 28.7187 39.5789 28.392 40.6803 28.392C40.8669 28.392 40.9976 28.42 41.0723 28.476C41.1656 28.5507 41.2123 28.6253 41.2123 28.7C41.2123 28.7747 41.0816 28.952 40.8203 29.232C40.5589 29.512 40.3256 29.848 40.1203 30.24C39.9336 30.632 39.8403 31.1267 39.8403 31.724C39.8403 32.4707 40.0549 33.0867 40.4843 33.572C40.9323 34.076 41.5296 34.328 42.2763 34.328ZM38.6083 21.056C38.6083 22.5493 38.9069 23.6507 39.5043 24.36C40.1203 25.0693 40.8856 25.424 41.8003 25.424C42.5469 25.424 43.2469 25.2187 43.9003 24.808C44.5536 24.3787 45.1323 23.7347 45.6363 22.876V16.128C44.7776 15.5493 43.8629 15.26 42.8923 15.26C41.5296 15.26 40.4749 15.7733 39.7283 16.8C38.9816 17.808 38.6083 19.2267 38.6083 21.056ZM56.096 25.536C56.096 26.1707 56.376 26.488 56.936 26.488C57.4027 26.488 57.8694 26.292 58.336 25.9L58.868 26.628C58.3827 27.1693 57.86 27.5987 57.3 27.916C56.74 28.2333 56.2174 28.392 55.732 28.392C54.9667 28.392 54.416 28.1587 54.08 27.692C53.744 27.2253 53.576 26.4693 53.576 25.424V9.128C53.576 8.904 53.5294 8.74533 53.436 8.652C53.3614 8.55867 53.2214 8.512 53.016 8.512H51.784L51.532 7.784C52.0734 7.29867 52.6894 6.89733 53.38 6.58C54.0707 6.26267 54.6867 6.104 55.228 6.104C55.4894 6.104 55.704 6.188 55.872 6.356C56.04 6.524 56.124 6.73867 56.124 7L56.096 25.536ZM72.5253 25.9C71.8346 26.7027 71.0133 27.3187 70.0613 27.748C69.1093 28.1773 68.0826 28.392 66.9813 28.392C65.6933 28.392 64.5639 28.0933 63.5933 27.496C62.6226 26.8987 61.8666 26.0587 61.3253 24.976C60.8026 23.8933 60.5413 22.6427 60.5413 21.224C60.5413 19.7307 60.8399 18.424 61.4373 17.304C62.0346 16.1653 62.8746 15.288 63.9573 14.672C65.0586 14.0373 66.3373 13.72 67.7933 13.72C68.8199 13.72 69.6879 13.916 70.3973 14.308C71.1253 14.6813 71.6666 15.1853 72.0213 15.82C72.3759 16.436 72.5533 17.108 72.5533 17.836C72.5533 18.62 72.3386 19.376 71.9093 20.104C71.4986 20.832 70.8919 21.4293 70.0893 21.896C69.2866 22.344 68.3253 22.568 67.2053 22.568C66.6079 22.568 65.9453 22.456 65.2173 22.232C64.4893 22.008 64.1253 21.6813 64.1253 21.252C64.1253 21.1027 64.1626 20.9627 64.2373 20.832C64.3306 20.7013 64.4333 20.636 64.5453 20.636C64.6013 20.636 64.7879 20.7013 65.1053 20.832C65.4226 20.944 65.8333 21 66.3373 21C67.4573 21 68.3253 20.6827 68.9413 20.048C69.5759 19.4133 69.8933 18.6667 69.8933 17.808C69.8933 17.08 69.6599 16.4547 69.1933 15.932C68.7266 15.3907 68.0733 15.12 67.2333 15.12C66.0386 15.12 65.1053 15.652 64.4333 16.716C63.7613 17.7613 63.4253 19.264 63.4253 21.224C63.4253 22.8853 63.7799 24.192 64.4893 25.144C65.1986 26.0773 66.2253 26.544 67.5693 26.544C69.2119 26.544 70.5746 26.012 71.6573 24.948C71.7319 24.8733 71.8159 24.836 71.9093 24.836C72.0586 24.836 72.2173 24.9293 72.3853 25.116C72.5533 25.284 72.6373 25.4613 72.6373 25.648C72.6373 25.7413 72.5999 25.8253 72.5253 25.9ZM86.5616 27.048L87.2056 26.88C87.6536 26.768 87.9709 26.6187 88.1576 26.432C88.3629 26.2453 88.4656 25.984 88.4656 25.648C88.4656 25.3493 88.3629 24.892 88.1576 24.276L86.8136 20.356H80.3456L79.6736 22.4C79.2442 23.688 79.0296 24.668 79.0296 25.34C79.0296 25.9747 79.1602 26.544 79.4216 27.048L79.6736 27.552L79.1416 28H73.9896L73.6536 27.048L74.2976 26.88C75.0442 26.6747 75.5856 26.404 75.9216 26.068C76.2576 25.732 76.5749 25.1347 76.8736 24.276L81.2696 11.62C81.4749 11.004 81.5776 10.5467 81.5776 10.248C81.5776 9.912 81.4749 9.65067 81.2696 9.464C81.0829 9.27733 80.7656 9.128 80.3176 9.016L79.6736 8.848L80.0096 7.896H85.4136L91.0416 24.136C91.3402 24.9947 91.6669 25.648 92.0216 26.096C92.3762 26.544 92.8896 27.0293 93.5616 27.552L93.1976 28H86.8976L86.5616 27.048ZM80.9336 18.62H86.2256L83.5376 10.78L80.9336 18.62ZM108.291 25.536C108.291 26.1147 108.562 26.404 109.103 26.404C109.532 26.404 109.99 26.236 110.475 25.9L111.007 26.628C110.578 27.1507 110.074 27.58 109.495 27.916C108.935 28.2333 108.412 28.392 107.927 28.392C107.18 28.392 106.63 28.1773 106.275 27.748C105.939 27.3187 105.771 26.6373 105.771 25.704C105.342 26.5253 104.698 27.1787 103.839 27.664C102.999 28.1493 102.066 28.392 101.039 28.392C99.6951 28.392 98.6404 27.9907 97.8751 27.188C97.1284 26.3667 96.7551 25.2187 96.7551 23.744V16.744C96.7551 16.3333 96.5684 16.128 96.1951 16.128H94.9631L94.7111 15.4C95.1964 14.9147 95.7844 14.5133 96.4751 14.196C97.1844 13.8787 97.8284 13.72 98.4071 13.72C98.6684 13.72 98.8831 13.804 99.0511 13.972C99.2191 14.14 99.3031 14.3547 99.3031 14.616V23.1C99.3031 24.22 99.5271 25.0693 99.9751 25.648C100.442 26.2267 101.114 26.516 101.991 26.516C103.242 26.516 104.212 25.9747 104.903 24.892C105.612 23.8093 105.967 22.316 105.967 20.412C105.967 19.0307 105.883 17.9573 105.715 17.192C105.566 16.408 105.286 15.6613 104.875 14.952L104.539 14.504L104.875 14.084L108.291 13.72V25.536ZM120.523 14.084C120.523 14.476 120.467 14.8307 120.355 15.148C120.243 15.4653 120.084 15.6987 119.879 15.848H116.883V24.864C116.883 25.4427 116.967 25.8533 117.135 26.096C117.303 26.3387 117.573 26.46 117.947 26.46C118.507 26.46 119.141 26.1613 119.851 25.564L120.383 26.292C119.897 26.9267 119.319 27.44 118.647 27.832C117.975 28.2053 117.34 28.392 116.743 28.392C115.977 28.392 115.38 28.1587 114.951 27.692C114.54 27.2067 114.335 26.544 114.335 25.704V15.848H111.871C111.871 15.344 111.908 15.0173 111.983 14.868C112.057 14.7187 112.244 14.6067 112.543 14.532C113.532 14.2707 114.232 13.8507 114.643 13.272C115.072 12.6747 115.38 11.9093 115.567 10.976C115.623 10.6773 115.716 10.4907 115.847 10.416C115.996 10.3413 116.341 10.304 116.883 10.304V14.084H120.523ZM124.129 9.128C124.129 8.904 124.083 8.74533 123.989 8.652C123.915 8.55867 123.775 8.512 123.569 8.512H122.337L122.085 7.784C122.627 7.29867 123.243 6.89733 123.933 6.58C124.643 6.26267 125.259 6.104 125.781 6.104C126.043 6.104 126.257 6.188 126.425 6.356C126.593 6.524 126.677 6.73867 126.677 7V17.892C127.163 16.6787 127.891 15.68 128.861 14.896C129.832 14.112 130.849 13.72 131.913 13.72C133.276 13.72 134.237 14.1213 134.797 14.924C135.376 15.7267 135.665 17.024 135.665 18.816V25.592C135.665 26.2267 135.945 26.544 136.505 26.544C136.972 26.544 137.439 26.348 137.905 25.956L138.437 26.684C137.952 27.2253 137.429 27.6547 136.869 27.972C136.309 28.2893 135.787 28.448 135.301 28.448C134.536 28.448 133.985 28.2147 133.649 27.748C133.313 27.2813 133.145 26.5253 133.145 25.48V18.816C133.145 17.8267 132.959 17.0987 132.585 16.632C132.231 16.1467 131.615 15.904 130.737 15.904C129.935 15.904 129.225 16.2213 128.609 16.856C128.012 17.4907 127.536 18.3867 127.181 19.544C126.845 20.7013 126.677 22.0267 126.677 23.52C126.677 24.3973 126.743 25.0973 126.873 25.62C127.004 26.1427 127.237 26.6467 127.573 27.132L127.909 27.58L127.573 28H122.673L122.365 27.132L122.953 26.992C123.42 26.88 123.728 26.684 123.877 26.404C124.045 26.1053 124.129 25.6013 124.129 24.892V9.128Z" fill="white" />
</svg>